<svg width="79" height="37" viewBox="0 0 79 37" fill="none" xmlns="http://www.w3.org/2000/svg">
<rect width="79" height="37" rx="18.5" fill="#424242"/>
<path d="M22 11.5H38" stroke="white" stroke-width="2" stroke-linecap="round" stroke-linejoin="round"/>
<circle cx="23" cy="11.5" r="2.25" fill="#424242" stroke="white" stroke-width="1.5"/>
<path d="M37 18.5H21" stroke="white" stroke-width="2" stroke-linecap="round" stroke-linejoin="round"/>
<circle cx="3" cy="3" r="2.25" transform="matrix(-1 0 0 1 39 15.5)" fill="#424242" stroke="white" stroke-width="1.5"/>
<path d="M22 25.5H38" stroke="white" stroke-width="2" stroke-linecap="round" stroke-linejoin="round"/>
<circle cx="23" cy="25.5" r="2.25" fill="#424242" stroke="white" stroke-width="1.5"/>
<path d="M50.0341 24V22.4773L54.0739 18.517C54.4602 18.1269 54.7822 17.7803 55.0398 17.4773C55.2973 17.1742 55.4905 16.8807 55.6193 16.5966C55.7481 16.3125 55.8125 16.0095 55.8125 15.6875C55.8125 15.3201 55.7292 15.0057 55.5625 14.7443C55.3958 14.4792 55.1667 14.2746 54.875 14.1307C54.5833 13.9867 54.2519 13.9148 53.8807 13.9148C53.4981 13.9148 53.1629 13.9943 52.875 14.1534C52.5871 14.3087 52.3636 14.5303 52.2045 14.8182C52.0492 15.1061 51.9716 15.4489 51.9716 15.8466H49.9659C49.9659 15.108 50.1345 14.4659 50.4716 13.9205C50.8087 13.375 51.2727 12.9527 51.8636 12.6534C52.4583 12.3542 53.1402 12.2045 53.9091 12.2045C54.6894 12.2045 55.375 12.3504 55.9659 12.642C56.5568 12.9337 57.0152 13.3333 57.3409 13.8409C57.6705 14.3485 57.8352 14.928 57.8352 15.5795C57.8352 16.0152 57.7519 16.4432 57.5852 16.8636C57.4186 17.2841 57.125 17.75 56.7045 18.2614C56.2879 18.7727 55.7027 19.392 54.9489 20.1193L52.9432 22.1591V22.2386H58.0114V24H50.0341Z" fill="white"/>
</svg>
